HIERARCHY
ROOT hip
{
	OFFSET 0.000000 0.000000 0.000000 
	CHANNELS 6 Xposition Yposition Zposition Xrotation Zrotation Yrotation
	JOINT abdomen
	{
		OFFSET 0.000000 3.402643 0.000000 
		CHANNELS 3 Xrotation Zrotation Yrotation
		JOINT chest
		{
			OFFSET 0.000000 8.438565 -0.680529 
			CHANNELS 3 Xrotation Zrotation Yrotation
			JOINT neck
			{
				OFFSET 0.000000 10.207942 -0.272212 
				CHANNELS 3 Xrotation Zrotation Yrotation
				JOINT head
				{
					OFFSET 0.000000 3.130431 0.000000 
					CHANNELS 3 Xrotation Zrotation Yrotation
					End Site
					{
						OFFSET 0.000000 3.130435 0.000000 
					}
				}
			}
			JOINT lCollar
			{
				OFFSET 3.470700 6.669187 -0.816635 
				CHANNELS 3 Yrotation Zrotation Xrotation
				JOINT lShldr
				{
					OFFSET 3.198488 0.000000 0.000000 
					CHANNELS 3 Zrotation Yrotation Xrotation
					JOINT lForeArm
					{
						OFFSET 10.139888 0.000000 0.000000 
						CHANNELS 3 Yrotation Zrotation Xrotation
						JOINT lHand
						{
							OFFSET 8.370511 0.000000 0.000000 
							CHANNELS 3 Zrotation Yrotation Xrotation
							End Site
							{
								OFFSET 4.083176 0.000000 0.000000 
							}
						}
					}
				}
			}
			JOINT rCollar
			{
				OFFSET -3.470700 6.669187 -0.816635 
				CHANNELS 3 Yrotation Zrotation Xrotation
				JOINT rShldr
				{
					OFFSET -3.198488 0.000000 0.000000 
					CHANNELS 3 Zrotation Yrotation Xrotation
					JOINT rForeArm
					{
						OFFSET -10.139888 0.000000 0.000000 
						CHANNELS 3 Yrotation Zrotation Xrotation
						JOINT rHand
						{
							OFFSET -8.370511 0.000000 0.000000 
							CHANNELS 3 Zrotation Yrotation Xrotation
							End Site
							{
								OFFSET -4.083176 0.000000 0.000000 
							}
						}
					}
				}
			}
		}
	}
	JOINT lThigh
	{
		OFFSET 5.308129 -1.633274 1.361059 
		CHANNELS 3 Xrotation Zrotation Yrotation
		JOINT lShin
		{
			OFFSET -2.041588 -20.007561 0.000000 
			CHANNELS 3 Xrotation Zrotation Yrotation
			JOINT lFoot
			{
				OFFSET 0.000000 -19.190928 -1.224953 
				CHANNELS 3 Xrotation Yrotation Zrotation
				End Site
				{
					OFFSET 0.000000 -2.449906 4.627600 
				}
			}
		}
	}
	JOINT rThigh
	{
		OFFSET -5.308129 -1.633274 1.361059 
		CHANNELS 3 Xrotation Zrotation Yrotation
		JOINT rShin
		{
			OFFSET 2.041588 -20.007561 0.000000 
			CHANNELS 3 Xrotation Zrotation Yrotation
			JOINT rFoot
			{
				OFFSET 0.000000 -19.190928 -1.224953 
				CHANNELS 3 Xrotation Yrotation Zrotation
				End Site
				{
					OFFSET 0.000000 -2.449906 4.627600 
				}
			}
		}
	}
}
MOTION
Frames: 18
Frame Time: 0.016667
-14.139900 45.419613 -3.684032 11.260500 0.651280 9.104380 -19.379299 2.846970 -3.670680 20.272400 4.902280 -1.303500 24.323400 1.724220 -5.972970 16.304100 6.073360 -3.197700 2.000000 -2.000000 0.000000 91.709198 -177.373001 4.136690 42.119598 -0.316258 0.091750 0.045660 -0.018120 -143.406006 -2.000000 2.000000 0.000000 -103.200996 170.283997 -3.842470 -37.344101 0.323539 0.082935 -0.054683 0.009539 -140.330002 -14.478857 -2.634971 -4.695556 15.346912 1.998759 1.529145 -7.066529 9.499258 2.448125 -18.822567 0.901884 0.974613 27.177183 -2.297655 -2.246834 -20.059673 -8.181624 -4.088797 
-14.159559 45.417435 -3.706364 11.455700 0.583837 9.444580 -19.324301 2.906490 -3.511410 20.311600 4.814410 -1.211900 25.364700 1.098190 -5.375550 16.702900 5.920240 -2.894380 2.000000 -2.000000 0.000000 91.748299 -177.169006 4.684020 42.480900 -0.315678 0.092388 0.045663 -0.018147 -143.416000 -2.000000 2.000000 0.000000 -103.435997 169.942001 -3.763490 -37.734798 0.322971 0.083675 -0.054723 0.010194 -140.563995 -14.764285 -2.620218 -4.727112 15.367332 1.996057 1.538122 -7.023537 9.260493 2.389802 -18.992899 0.884384 0.875243 27.060575 -2.285740 -2.246766 -20.097410 -8.286952 -4.154193 
-14.186633 45.421543 -3.733618 11.650900 0.526044 9.835110 -19.208500 2.927320 -3.427420 20.419399 4.765610 -1.163700 26.058701 0.398615 -4.875590 16.972799 5.722920 -2.607030 2.000000 -2.000000 0.000000 91.797203 -176.858002 5.026510 42.822701 -0.315125 0.092988 0.045654 -0.018066 -143.386993 -2.000000 2.000000 0.000000 -103.571999 169.376007 -3.703470 -37.988701 0.322599 0.084153 -0.054713 0.010030 -140.505997 -14.987204 -2.607177 -4.881104 15.184014 1.960704 1.518340 -6.958823 9.078502 2.365014 -19.124956 0.887969 0.941714 26.993790 -2.267791 -2.253785 -20.353132 -8.544609 -4.334799 
-14.213481 45.425659 -3.760872 11.846100 0.468325 10.235000 -19.102800 2.960550 -3.338630 20.517401 4.726560 -1.116500 26.747101 -0.308829 -4.393100 17.242800 5.525880 -2.332230 2.000000 -2.000000 0.000000 91.855797 -176.535995 5.359250 43.164501 -0.314569 0.093584 0.045645 -0.017984 -143.356995 -2.000000 2.000000 0.000000 -103.709000 168.809998 -3.643450 -38.242599 0.322225 0.084630 -0.054703 0.009866 -140.447006 -15.216652 -2.614336 -5.042634 15.049496 1.934863 1.518538 -6.910261 8.926356 2.334513 -19.364027 0.897526 0.998875 27.004025 -2.267130 -2.263170 -20.561939 -8.816724 -4.496932 
-14.240779 45.421928 -3.773386 11.933900 0.391737 10.571100 -18.968300 3.004700 -3.220010 20.625200 4.677730 -1.058080 27.425400 -0.642368 -3.994910 17.585100 5.479350 -2.113150 2.000000 -2.000000 0.000000 91.924202 -176.244003 5.750520 43.516102 -0.313993 0.094194 0.045697 -0.018446 -143.522995 -2.000000 2.000000 0.000000 -103.845001 168.311996 -3.534780 -38.252300 0.322211 0.084648 -0.054703 0.009866 -140.447006 -15.320885 -2.557299 -5.095196 14.876604 1.904299 1.528527 -6.694304 8.637907 2.271312 -19.406897 0.956404 1.085965 26.986513 -2.250193 -2.279204 -20.780184 -9.017354 -4.629251 
-14.268190 45.418335 -3.785900 12.021700 0.324750 10.909100 -18.843599 3.057860 -3.105160 20.723200 4.638650 -0.991644 28.104601 -0.971119 -3.595340 17.927099 5.423260 -1.896910 2.000000 -2.000000 0.000000 91.992599 -175.951996 6.141790 43.867599 -0.313414 0.094801 0.045748 -0.018881 -143.679993 -2.000000 2.000000 0.000000 -103.972000 167.824005 -3.435910 -38.252300 0.322211 0.084648 -0.054701 0.009839 -140.436996 -15.520080 -2.524417 -5.146120 14.857038 1.903448 1.528858 -6.535275 8.381371 2.217912 -19.506321 1.011080 1.139781 26.996441 -2.243381 -2.267664 -20.994637 -9.202623 -4.753503 
-14.288298 45.416660 -3.785406 12.099800 0.305558 11.247200 -18.795401 3.040110 -3.013110 20.742800 4.589820 -0.951168 28.457199 -1.454020 -3.477800 18.040899 5.268670 -1.816100 2.000000 -2.000000 0.000000 92.031799 -176.225998 6.395100 44.473099 -0.312407 0.095837 0.045787 -0.019206 -143.796997 -2.000000 2.000000 0.000000 -104.011002 167.442993 -3.298240 -38.223000 0.322254 0.084593 -0.054686 0.009593 -140.350006 -15.589729 -2.544265 -5.196232 14.761224 1.885977 1.538702 -6.455460 8.135672 2.144341 -19.567617 0.963670 1.004081 27.055822 -2.240201 -2.275562 -21.120600 -9.268418 -4.829820 
-14.308407 45.414997 -3.784900 12.187700 0.295911 11.597200 -18.747400 3.035020 -2.915130 20.772200 4.531220 -0.909990 28.812500 -1.942100 -3.370900 18.144699 5.104980 -1.729420 2.000000 -2.000000 0.000000 92.080803 -176.490005 6.648420 45.068802 -0.311406 0.096846 0.045830 -0.019559 -143.923996 -2.000000 2.000000 0.000000 -104.049004 167.063004 -3.150800 -38.183998 0.322312 0.084520 -0.054670 0.009320 -140.251999 -15.706353 -2.578441 -5.240421 14.693200 1.879227 1.539458 -6.346323 7.868735 2.079427 -19.647463 0.918870 0.856982 27.113958 -2.248459 -2.276207 -21.232693 -9.348700 -4.891937 
-14.333459 45.411144 -3.771499 12.207100 0.200441 11.947700 -18.680500 3.049840 -2.791670 20.811300 4.462850 -0.838858 29.028200 -2.371030 -3.328070 18.228800 4.932420 -1.677550 2.000000 -2.000000 0.000000 92.178497 -176.266998 6.951650 45.225101 -0.311142 0.097109 0.045912 -0.020211 -144.158005 -2.000000 2.000000 0.000000 -104.049004 166.720993 -3.101120 -38.203499 0.322283 0.084556 -0.054718 0.010112 -140.535004 -15.812455 -2.504365 -5.284403 14.780993 1.885231 1.538188 -6.469892 7.578801 2.013163 -19.643101 0.958007 0.678321 27.134626 -2.244519 -2.294321 -21.401985 -9.462574 -4.991103 
-14.358510 45.407417 -3.758097 12.236300 0.104981 12.298200 -18.623199 3.055180 -2.666290 20.840700 4.384710 -0.778383 29.246201 -2.806580 -3.293260 18.303200 4.760210 -1.626170 2.000000 -2.000000 0.000000 92.266403 -176.033005 7.254900 45.371498 -0.310893 0.097355 0.045999 -0.020889 -144.401993 -2.000000 2.000000 0.000000 -104.049004 166.378998 -3.041680 -38.213299 0.322269 0.084575 -0.054770 0.010903 -140.817993 -15.897436 -2.434595 -5.330701 14.809749 1.888082 1.528135 -6.562292 7.278307 1.980959 -19.628616 1.017439 0.508148 27.145449 -2.230776 -2.291077 -21.555998 -9.593606 -5.078108 
-14.380641 45.403683 -3.750750 12.236300 -0.028631 12.640300 -18.595301 3.098290 -2.606660 20.811300 4.365190 -0.751415 29.420799 -2.672690 -3.101540 18.384899 4.900290 -1.544410 2.000000 -2.000000 0.000000 92.246902 -176.033005 7.469740 45.576599 -0.310545 0.097698 0.046195 -0.022325 -144.919998 -2.000000 2.000000 0.000000 -104.214996 166.009995 -2.542710 -37.978901 0.322614 0.084135 -0.054836 0.011831 -141.149994 -16.045702 -2.327444 -5.344107 14.967093 1.894880 1.544896 -6.563901 6.930347 1.900988 -19.605534 1.114570 0.382944 27.136084 -2.225059 -2.289950 -21.714808 -9.676311 -5.180458 
-14.402771 45.400089 -3.743414 12.236400 -0.162244 12.982400 -18.577000 3.137770 -2.556770 20.772100 4.345670 -0.725168 29.585800 -2.539130 -2.909210 18.466499 5.030800 -1.474470 2.000000 -2.000000 0.000000 92.227501 -176.033997 7.674820 45.781700 -0.310195 0.098039 0.046407 -0.023786 -145.447006 -2.000000 2.000000 0.000000 -104.379997 165.639999 -2.043750 -37.754299 0.322943 0.083711 -0.054907 0.012758 -141.481995 -16.220749 -2.231170 -5.354770 15.101473 1.918750 1.534971 -6.555350 6.596777 1.825654 -19.611311 1.212362 0.255271 27.155827 -2.222996 -2.289074 -21.916620 -9.763588 -5.280690 
-14.414792 45.390316 -3.709128 12.187500 -0.133637 13.076600 -18.480400 3.129820 -2.382640 20.840599 4.267530 -0.642262 29.540501 -2.812540 -2.849380 18.415199 4.937420 -1.424810 2.000000 -2.000000 0.000000 92.266602 -176.014999 7.958070 46.035599 -0.309759 0.098461 0.046602 -0.025056 -145.906006 -2.000000 2.000000 0.000000 -104.341003 165.238998 -2.003700 -37.510201 0.323298 0.083250 -0.054883 0.012458 -141.375000 -16.156801 -2.235676 -5.302310 15.131615 1.913608 1.533679 -6.610094 6.450689 1.816487 -19.540148 1.182061 0.196782 27.205849 -2.224443 -2.317570 -21.960985 -9.743345 -5.261045 
-14.426925 45.380554 -3.674854 12.148500 -0.105016 13.170700 -18.383801 3.125230 -2.199570 20.909201 4.199140 -0.559480 29.496099 -3.094670 -2.794340 18.354099 4.844220 -1.385590 2.000000 -2.000000 0.000000 -87.694199 -4.003870 -171.768005 46.289501 -0.309322 0.098880 0.046808 -0.026325 -146.365005 -2.000000 2.000000 0.000000 -104.302002 164.839005 -1.963640 -37.256199 0.323666 0.082769 -0.054862 0.012185 -141.276993 -16.129665 -2.261211 -5.254184 15.230369 1.916815 1.551367 -6.697738 6.333334 1.790794 -19.487129 1.163346 0.125593 27.301620 -2.237537 -2.289416 -22.009357 -9.724557 -5.277489 
-14.433887 45.373871 -3.643973 12.138700 -0.200493 13.394300 -18.364799 3.116980 -2.082430 20.889500 4.081960 -0.503013 29.541000 -3.156320 -2.734610 18.343901 4.825530 -1.342400 2.000000 -2.000000 0.000000 -87.645302 -4.002990 -171.397003 46.475101 -0.309002 0.099186 0.047086 -0.027942 -146.951004 -2.000000 2.000000 0.000000 -104.204002 164.662994 -2.012040 -37.246498 0.323680 0.082750 -0.054867 0.012240 -141.296997 -16.319099 -2.181122 -5.087262 15.522797 1.944890 1.567809 -6.863163 5.930098 1.715778 -19.436436 1.235601 0.015306 27.303425 -2.223794 -2.305699 -22.133354 -9.687242 -5.280199 
-14.440741 45.367321 -3.613102 12.129100 -0.305524 13.606200 -18.345699 3.108720 -1.965330 20.860100 3.964790 -0.447143 29.575800 -3.225710 -2.670660 18.323900 4.807070 -1.300020 2.000000 -2.000000 0.000000 -87.586502 -4.002090 -171.016998 46.660599 -0.308680 0.099490 0.047380 -0.029556 -147.537003 -2.000000 2.000000 0.000000 -104.106003 164.487000 -2.050670 -37.226898 0.323709 0.082713 -0.054869 0.012267 -141.307007 -16.394220 -2.068750 -4.934320 15.680709 1.946712 1.584080 -6.997750 5.549965 1.648400 -19.394333 1.302355 -0.114258 27.293188 -2.229748 -2.307331 -22.273661 -9.656026 -5.298676 
-14.439731 45.371555 -3.592454 12.178000 -0.362743 13.867000 -18.336399 3.106110 -1.861030 20.820900 3.867150 -0.401480 29.706699 -3.228100 -2.576870 18.392900 4.824380 -1.250400 2.000000 -2.000000 0.000000 -87.694000 -4.041110 -170.996994 46.865700 -0.308324 0.099825 0.047395 -0.029637 -147.565994 -2.000000 2.000000 0.000000 -104.096001 164.302002 -2.050210 -37.246498 0.323680 0.082750 -0.054933 0.013085 -141.598999 -16.622828 -2.076509 -4.814837 15.983875 1.967117 1.599477 -7.143577 5.180633 1.574718 -19.354433 1.293497 -0.274879 27.204706 -2.229246 -2.299222 -22.273769 -9.696594 -5.335310 
-14.438720 45.375923 -3.571818 12.226900 -0.419941 14.117900 -18.317101 3.094410 -1.753120 20.781700 3.769500 -0.355685 29.828100 -3.238890 -2.488570 18.452101 4.841900 -1.201560 2.000000 -2.000000 0.000000 -87.801399 -4.080100 -170.966995 47.080502 -0.307949 0.100175 0.047410 -0.029718 -147.595993 -2.000000 2.000000 0.000000 -104.096001 164.126007 -2.059540 -37.265999 0.323652 0.082787 -0.055000 0.013875 -141.882996 -16.786560 -2.054826 -4.704597 16.190393 1.973258 1.615292 -7.289695 4.803493 1.485771 -19.324953 1.284912 -0.426661 27.136145 -2.224205 -2.289802 -22.283079 -9.744393 -5.366357 
